<?xml version="1.0" encoding="UTF-8" standalone="no"?>
<svg
   xmlns:dc="http://purl.org/dc/elements/1.1/"
   xmlns:cc="http://creativecommons.org/ns#"
   xmlns:rdf="http://www.w3.org/1999/02/22-rdf-syntax-ns#"
   xmlns:svg="http://www.w3.org/2000/svg"
   xmlns="http://www.w3.org/2000/svg"
   xmlns:xlink="http://www.w3.org/1999/xlink"
   xmlns:sodipodi="http://sodipodi.sourceforge.net/DTD/sodipodi-0.dtd"
   xmlns:inkscape="http://www.inkscape.org/namespaces/inkscape"
   id="Layer_1"
   data-name="Layer 1"
   viewBox="0 0 660 659.99997"
   version="1.1"
   sodipodi:docname="swollio-final.svg"
   width="660"
   height="660"
   inkscape:export-filename="/Users/anshulkamath/Desktop/swollio-icon.png"
   inkscape:export-xdpi="109.04"
   inkscape:export-ydpi="109.04"
   inkscape:version="1.0 (4035a4f, 2020-05-01)">
  <metadata
     id="metadata938">
    <rdf:RDF>
      <cc:Work
         rdf:about="">
        <dc:format>image/svg+xml</dc:format>
        <dc:type
           rdf:resource="http://purl.org/dc/dcmitype/StillImage" />
        <dc:title></dc:title>
      </cc:Work>
    </rdf:RDF>
  </metadata>
  <sodipodi:namedview
     inkscape:document-rotation="0"
     pagecolor="#ffffff"
     bordercolor="#666666"
     borderopacity="1"
     objecttolerance="10"
     gridtolerance="10"
     guidetolerance="10"
     inkscape:pageopacity="1"
     inkscape:pageshadow="2"
     inkscape:window-width="1236"
     inkscape:window-height="854"
     id="namedview936"
     showgrid="false"
     inkscape:zoom="0.43728052"
     inkscape:cx="422.53147"
     inkscape:cy="450.01878"
     inkscape:window-x="0"
     inkscape:window-y="23"
     inkscape:window-maximized="0"
     inkscape:current-layer="Layer_1" />
  <defs
     id="defs927">
    <style
       id="style919">.cls-1{fill:url(#linear-gradient);}.cls-2{fill:#fff;}.cls-3{fill:url(#linear-gradient-2);}</style>
    <linearGradient
       id="linear-gradient"
       x1="667.08002"
       y1="539.64001"
       x2="1328.0699"
       y2="539.64001"
       gradientUnits="userSpaceOnUse">
      <stop
         offset="0"
         stop-color="#ccabdb"
         id="stop921" />
      <stop
         offset="1"
         stop-color="#fa897b"
         id="stop923" />
    </linearGradient>
    <linearGradient
       id="linear-gradient-2"
       x1="687.09003"
       y1="539.64001"
       x2="1308.0699"
       y2="539.64001"
       xlink:href="#linear-gradient"
       gradientTransform="translate(-667.58685,-209.56687)" />
    <linearGradient
       inkscape:collect="always"
       xlink:href="#linear-gradient"
       id="linearGradient940"
       gradientUnits="userSpaceOnUse"
       x1="667.08002"
       y1="539.64001"
       x2="1328.0699"
       y2="539.64001"
       gradientTransform="translate(-667.53856,-209.635)" />
  </defs>
  <path
     class="cls-1"
     d="m 623.24144,297.265 c -23.72,-29.51 -56,-50.31 -90.86,-58.57 a 158.8,158.8 0 0 0 -36.49,-4.21 c -38.18,0 -76.27,13.13 -107.31,37 -1.17,0.8 -2.39,1.68 -3.81,2.74 l -0.18,0.14 c -1.73,1.31 -3.5,2.7 -5.28,4.1 -1.13,0.89 -2.22,1.84 -3.3,2.88 l -2.49,2.4 c -2.41,2.31 -4.9,4.7 -7.41,7.33 -1.82,1.91 -3.32,3.75 -4.63,5.38 -0.58,0.71 -1.15,1.42 -1.81,2.19 a 105.74,105.74 0 0 0 -6.75,9.1 l -0.27,0.4 c -1.87,2.74 -3.55,5.47 -5,8.13 q -1.11,2 -2.19,4.1 l -0.55,0.94 a 153.78,153.78 0 0 0 -31.67,-3.31 c -2.66,0 -5.34,0.07 -8,0.21 a 156.85,156.85 0 0 0 -76.78,25.38 368.55,368.55 0 0 1 22.54,-103.53 l 9.46,-22.56 c 1.36,-3.22 3,-6.58 4.5,-9.76 l 2.29,-4.75 c 2.25,-4.67 4.15,-8.57 6.14,-12.41 0.44,-0.86 0.9,-1.72 1.38,-2.59 0.95,0.06 1.93,0.09 2.93,0.09 h 1.6 c 9.77,0 19.51,-0.22 28.11,-0.42 q 1,0 1.95,-0.09 a 38.58,38.58 0 0 0 26.91,10.94 c 1.17,0 2.36,-0.06 3.58,-0.16 h 0.18 c 2.39,-0.21 5.1,-0.44 8,-1 1.7,-0.29 3.22,-0.64 4.56,-0.94 l 1.21,-0.27 a 28.47,28.47 0 0 0 5.15,0.49 c 0.36,0 0.72,0 1.13,0 0.41,0 1,0 1.44,0 1,0 2.05,0 3.06,0.06 1.4,0 2.8,0.07 4.2,0.07 a 50.28,50.28 0 0 0 15.48,-2.15 79.47,79.47 0 0 0 15.77,-6.76 l 0.54,-0.32 1.54,-0.2 a 54.61,54.61 0 0 0 10,-2 c 6.48,-2 14,-4.94 20.64,-11.21 a 12.65,12.65 0 0 1 2.23,-1.65 52.37,52.37 0 0 0 17.48,-16.85 31.38,31.38 0 0 0 4.64,-16.9 c 0,-0.32 0,-0.63 0,-0.91 a 28.2,28.2 0 0 0 -4.64,-17.15 c -2.22,-3.33 -4.49,-6.53 -6.68,-9.62 -1.61,-2.28 -3.13,-4.42 -4.61,-6.58 -2,-2.86 -3.86,-5.71 -5.87,-8.73 -2.35,-3.54 -4.78,-7.19 -7.28,-10.8 -1.84,-2.66 -3.7,-5.19 -5.5,-7.64 -2.54,-3.47 -5,-6.74 -7,-10 -5.07,-8 -14.9,-17.48 -32.94,-17.48 h -0.79 c -3.64,0 -7.58,0.08 -12.41,0.08 h -9.13 -9.1 v 0 h -1.26 a 24,24 0 0 0 -3.07,0.19 c -1.91,0.23 -3.82,0.48 -5.73,0.73 l -7.62,1 c -1.62,0.19 -3.23,0.36 -4.85,0.53 -2.27,0.24 -4.61,0.49 -7,0.8 -3.12,0.4 -6.17,0.86 -9.12,1.3 l -3,0.45 -2.16,0.31 c -2.2,0.31 -4.7,0.66 -7.33,1.18 -2.23,0.45 -4.31,0.95 -6.32,1.43 -1.73,0.41 -3.35,0.8 -4.86,1.1 -1.51,0.3 -3,0.56 -4.73,0.84 -2.38,0.39 -5.07,0.83 -7.84,1.45 -2.77,0.62 -5.52,1.41 -7.86,2.09 -1.23,0.36 -2.45,0.72 -3.65,1 -1.7,0.44 -3.56,0.85 -5.53,1.28 l -1.19,0.27 c -0.67,0.15 -1.55,0.3 -2.48,0.47 a 54.07,54.07 0 0 0 -10.64,2.74 98.61,98.61 0 0 0 -18.45,8.85 119.37,119.37 0 0 0 -11.52,8.66 l -0.11,-0.22 c -1.23,1.12 -2.45,2.25 -3.69,3.35 -2.35,2.37 -4.72,4.71 -7,7.1 a 0.44,0.44 0 0 1 -0.59,0.06 l -9.27,11.35 c -0.87,1.05 -1.72,2.12 -2.5,3.15 l -0.23,0.3 c -3.18,4 -5.93,7.54 -8.41,10.86 -0.67,0.9 -1.33,1.81 -2,2.71 l -0.34,0.47 c -38.34,50.15 -75.34,99.67 -106.880003,153.97 -39.84,68.62 -63.64,132.83 -72.7700002,196.31 -1.56000001,10.78 -2.92,23.37 0.6,36.43 3.71,13.78 12.4000002,26.41 26.5700002,38.64 18.14,15.61 47.54,35.24 115.140003,48.54 35.72,7 70.06,10.6 102.08,10.6 v 0 c 59.09,0 111.33,-12.06 155.26,-35.83 20.57,-11.13 46,-11.45 73,-11.78 19,-0.23 38.6,-0.48 58.1,-4.45 72.51,-14.8 129,-84.82 128.56,-159.4 -0.13,-35.77 -13.37,-71.8 -37.22,-101.46 z"
     id="path929"
     style="fill:url(#linearGradient940)" />
  <path
     class="cls-2"
     d="m 245.48077,600.2 c -31.37,0 -65.06,-3.5 -100.14,-10.41 -65.329997,-12.85 -93.409997,-31.5 -110.579997,-46.31 -12.6,-10.87 -20.27,-21.88 -23.44,-33.66 -3.0000004,-11.23 -1.7800004,-22.61 -0.37,-32.4 8.95,-62.19 32.34,-125.23 71.53,-192.72 31.239997,-53.82 68.079997,-103.09 106.239997,-153 l 0.42,-0.57 c 0.64,-0.87 1.28,-1.75 1.93,-2.62 2.43,-3.26 5.14,-6.75 8.27,-10.69 l 0.26,-0.34 c 0.75,-1 1.53,-2 2.33,-2.94 l 9.73,-11.9 0.14,0.26 c 1.18,-1.25 2.41,-2.46 3.72,-3.63 a 140.44,140.44 0 0 1 16.35,-13 88.44,88.44 0 0 1 16.5,-7.89 45.49,45.49 0 0 1 8.77,-2.22 c 1,-0.18 2,-0.36 2.89,-0.55 l 1.17,-0.26 c 2.07,-0.46 4,-0.88 5.91,-1.38 1.3,-0.34 2.61,-0.73 3.92,-1.11 2.3,-0.67 4.69,-1.36 7.23,-1.93 2.54,-0.57 4.94,-1 7.3,-1.35 1.78,-0.29 3.45,-0.57 5.08,-0.9 1.63,-0.33 3.39,-0.74 5.2,-1.18 1.81,-0.44 3.91,-0.93 6,-1.34 2.33,-0.47 4.57,-0.78 6.74,-1.09 l 2.24,-0.31 3,-0.46 c 2.89,-0.44 5.88,-0.89 8.89,-1.27 2.3,-0.3 4.59,-0.54 6.8,-0.77 l 5,-0.55 c 2.57,-0.31 5.14,-0.65 7.72,-1 l 5.68,-0.72 a 15.68,15.68 0 0 1 1.84,-0.11 h 0.91 0.26 9.17 9.13 v 0 c 4.88,0 8.87,0 12.56,-0.08 h 0.64 c 10.84,0 19.08,4.32 24.5,12.84 2.24,3.52 4.74,6.93 7.39,10.54 1.76,2.39 3.58,4.87 5.33,7.41 2.45,3.54 4.86,7.15 7.19,10.65 1.94,2.91 3.94,5.93 5.93,8.83 1.53,2.24 3.15,4.52 4.71,6.72 2.16,3 4.38,6.18 6.52,9.39 a 18,18 0 0 1 3.07,10.93 c 0,0.42 0,0.87 0,1.32 -0.08,2.9 -0.19,7.28 -3.07,11.75 a 41.72,41.72 0 0 1 -14.12,13.69 23.3,23.3 0 0 0 -4,3 c -5.16,4.87 -11.11,7.18 -16.77,8.95 a 45.93,45.93 0 0 1 -8.24,1.58 c -1.33,0.16 -2.59,0.32 -3.66,0.54 -0.33,0.15 -1,0.56 -1.5,0.83 l -0.67,0.4 a 69.25,69.25 0 0 1 -13.82,5.9 40.57,40.57 0 0 1 -12.45,1.68 c -1.31,0 -2.62,0 -3.93,-0.07 -1.1,0 -2.21,-0.06 -3.32,-0.06 -0.64,0 -1.27,0 -1.9,0 h -0.68 a 21,21 0 0 1 -4.68,-0.61 l -0.34,-0.08 c -1.07,0.15 -2.29,0.43 -3.56,0.72 -1.27,0.29 -2.6,0.59 -4,0.84 -2.51,0.43 -4.89,0.64 -7.19,0.84 h -0.19 c -0.92,0.08 -1.82,0.12 -2.71,0.12 -8.94,0 -16.74,-3.89 -23.22,-11.55 a 33.56,33.56 0 0 1 -5.86,0.71 c -8.55,0.19 -18.24,0.41 -27.88,0.41 h -1.58 a 58.75,58.75 0 0 1 -8.36,-0.75 c -1.75,3 -3.39,5.79 -4.87,8.67 -2,3.95 -4,7.93 -6.28,12.69 0,0.09 -2.27,4.72 -2.27,4.72 -1.58,3.28 -3.25,6.76 -4.7,10.19 l -5.59,13.35 -0.21,-0.2 a 378,378 0 0 0 -27.85,137.55 c 24.34,-21.25 55.87,-34.4 88.14,-36.13 2.46,-0.13 5,-0.2 7.45,-0.2 a 143.84,143.84 0 0 1 36.69,4.78 l 3.5,-6.22 0.65,-1.12 0.13,-0.24 q 1.08,-2.05 2.2,-4.1 c 1.32,-2.38 2.84,-4.84 4.54,-7.34 l 0.26,-0.38 a 94.9,94.9 0 0 1 6.1,-8.26 c 0.7,-0.8 1.34,-1.59 2,-2.38 1.26,-1.55 2.56,-3.16 4.1,-4.78 2.35,-2.46 4.76,-4.77 7.09,-7 l 2.54,-2.45 a 33.92,33.92 0 0 1 2.57,-2.23 c 1.63,-1.29 3.36,-2.64 5.1,-4 l 0.09,-0.07 c 1.41,-1 2.6,-1.9 3.72,-2.67 29.35,-22.61 65.36,-35.06 101.43,-35.06 a 148.36,148.36 0 0 1 34.19,3.95 c 32.71,7.74 63,27.31 85.37,55.1 22.37,27.79 34.89,61.73 35.08,95.24 0.39,70 -52.56,135.67 -120.56,149.55 -18.57,3.79 -37.71,4 -56.23,4.25 -28.22,0.35 -54.88,0.68 -77.62,13 -42.45,23 -93.09,34.63 -150.5,34.63 z"
     id="path931" />
  <path
     class="cls-3"
     d="m 527.73315,258.23313 c -44,-10.41 -91.77,1.9 -127.44,29.47 -1.23,0.84 -2.44,1.72 -3.63,2.61 -1.69,1.28 -3.36,2.59 -5,3.9 -0.61,0.48 -1.19,1 -1.75,1.51 -3.12,3 -6.34,6 -9.35,9.18 -2,2.13 -3.78,4.52 -5.69,6.75 a 88.77,88.77 0 0 0 -5.71,7.78 c -1.44,2.12 -2.82,4.31 -4.06,6.54 q -1.11,2 -2.19,4.11 c -0.28,0.47 -0.56,1 -0.83,1.43 h 0.07 c -0.73,1.41 -1.45,2.82 -2.14,4.24 -1,2 -1.72,4.17 -2.6,6.25 -0.43,1 -0.82,2.06 -1.2,3.1 a 135.1,135.1 0 0 0 -49.94,-6.92 137,137 0 0 0 -98.2,50.44 387.69,387.69 0 0 1 33.76,-178.8 l 0.12,0.11 a 1.67,1.67 0 0 0 0.08,-0.2 c 1.52,-3.59 3.21,-7.12 4.9,-10.63 0.72,-1.5 1.44,-3 2.17,-4.51 l 0.08,-0.16 v 0 c 2.09,-4.35 4.2,-8.69 6.42,-13 2,-4 4.34,-7.79 6.59,-11.64 0.87,-1.48 4.16,-3 5.51,-2.78 a 79.38,79.38 0 0 0 10,1.08 c 9.74,0 19.48,-0.18 29.21,-0.4 a 28.58,28.58 0 0 0 5.65,-0.85 c 3.64,-0.82 4.88,-0.46 6.9,2.21 4.67,6.15 10.47,10.1 18.6,9.4 2.19,-0.2 4.39,-0.38 6.55,-0.76 3,-0.51 5.91,-1.43 8.91,-1.73 a 9.63,9.63 0 0 1 2.93,0.35 10.11,10.11 0 0 0 2.71,0.37 c 2,-0.09 4,0 5.94,0 4.37,0.12 8.74,0.23 13.08,-1.14 a 59.26,59.26 0 0 0 11.87,-5.05 18.2,18.2 0 0 1 4.83,-2.28 c 3.71,-0.81 7.64,-0.82 11.24,-1.93 4.62,-1.45 9.21,-3.21 12.9,-6.69 a 32.32,32.32 0 0 1 5.72,-4.28 32.33,32.33 0 0 0 10.82,-10.5 c 1.71,-2.67 1.36,-5.55 1.55,-8.35 a 8.21,8.21 0 0 0 -1.41,-4.71 c -3.61,-5.41 -7.48,-10.63 -11.16,-16 -4.41,-6.44 -8.65,-13 -13.09,-19.450004 -4.25,-6.13 -8.94,-12 -12.94,-18.26 -4,-6.26 -9.54,-8.31 -16.55,-8.2 -10.37,0.15 -20.74,0 -31.11,0 a 14.1,14.1 0 0 0 -1.72,0 c -4.48,0.56 -9,1.16 -13.44,1.71 -3.9,0.46 -7.81,0.81 -11.7,1.31 -3.89,0.5 -7.82,1.12 -11.73,1.7 -2.83,0.42 -5.68,0.75 -8.48,1.31 -3.74,0.75 -7.43,1.77 -11.17,2.53 -4,0.81 -8.16,1.31 -12.18,2.2 -3.63,0.81 -7.18,2 -10.79,3 -2.46,0.65 -5,1.18 -7.43,1.73 -3.41,0.76 -7,1.07 -10.2,2.32 a 80.29,80.29 0 0 0 -14.66,7 131.86,131.86 0 0 0 -15.16,12.080004 81.87,81.87 0 0 0 -8.67,9.46 q -1.92,2.34 -3.81,4.69 v 0 c -0.72,0.89 -1.44,1.79 -2.14,2.71 -0.1,0.13 -0.2,0.27 -0.31,0.4 q -4.14,5.19 -8.13,10.51 c -0.8,1.06 -1.58,2.13 -2.36,3.2 -37.52,49.08 -74.61,98.63 -105.610003,152 -34,58.52 -60.63,122.15 -70.27,189.12 -1.36,9.43 -2.36,19.18 0.12,28.38 3.1,11.49 11.31,20.92 20.32,28.69 29.31,25.28 68.000003,36.6 106.000003,44.07 32.12,6.32 65.32,10.22 98.26,10.22 50.93,0 101.21,-9.33 145.74,-33.42 40.74,-22 91.22,-9 136.61,-18.24 63.47,-12.95 112.93,-74.9 112.56,-139.69 -0.37,-64.79 -49.73,-125.68 -112.77,-140.6 z"
     id="path933"
     style="fill:url(#linear-gradient-2)" />
</svg>
